<?xml version="1.0" encoding="UTF-8"?>
<svg width="13px" height="28px" viewBox="0 0 13 28" version="1.1" xmlns="http://www.w3.org/2000/svg" xmlns:xlink="http://www.w3.org/1999/xlink">
    <!-- Generator: Sketch 52.2 (67145) - http://www.bohemiancoding.com/sketch -->
    <title>Group 43</title>
    <desc>Created with Sketch.</desc>
    <g id="KPI-dashboard" stroke="none" stroke-width="1" fill="none" fill-rule="evenodd" opacity="0.644685">
        <g id="2E" transform="translate(-32.000000, -540.000000)" fill-rule="nonzero">
            <g id="Group-14" transform="translate(17.000000, 532.000000)">
                <g id="Group-43" transform="translate(21.500000, 22.000000) rotate(180.000000) translate(-21.500000, -22.000000) translate(15.000000, 7.500000)">
                    <path d="M11.6333429,19.4090909 C12.3881268,19.4090909 13,18.7572853 13,17.9556507 L13,5.18936273 C13,4.78845371 12.7834082,4.23322927 12.5163505,3.94936375 L9.7548749,1.01408896 C9.48776267,0.730165465 8.96275517,0.5 8.58949007,0.5 L1.36800126,0.5 C0.612475021,0.5 0,1.15089371 0,1.95236703 L0,17.9567239 C0,18.758844 0.609580537,19.4090909 1.36665709,19.4090909 L11.6333429,19.4090909 Z M9.92439261,4.86363636 C9.35670104,4.86363636 8.89473684,4.37305411 8.89473684,3.77274789 L8.89473684,2.31818182 C8.89473684,2.117351 8.74157108,1.95454545 8.55263158,1.95454545 C8.36369208,1.95454545 8.21052632,2.117351 8.21052632,2.31818182 L8.21052632,3.77274789 C8.21052632,4.77486731 8.97896442,5.59090909 9.92439261,5.59090909 L11.2894737,5.59090909 C11.4784132,5.59090909 11.6315789,5.42810353 11.6315789,5.22727273 C11.6315789,5.02644193 11.4784132,4.86363636 11.2894737,4.86363636 L9.92439261,4.86363636 Z M3.95000467,11.586625 C3.68147452,11.3013588 3.67931385,10.8365325 3.94517869,10.5484064 L5.98074767,8.32424316 C6.24755064,8.03510047 6.68263077,8.03393629 6.95077445,8.32164764 L9.0204686,10.5458109 C9.2876694,10.8325106 9.2876694,11.2973427 9.0204686,11.5840424 C8.75326776,11.8707421 8.32004961,11.8707421 8.0528488,11.5840424 L7.15226463,10.6143045 L7.15226463,13.9179368 C7.15226463,14.3233915 6.84593315,14.6520774 6.46805411,14.6520774 C6.09017507,14.6520774 5.78384358,14.3233915 5.78384358,13.9179368 L5.78384358,10.6223364 L4.91761243,11.5814469 C4.65174758,11.8695729 4.21853483,11.8718912 3.95000467,11.586625 Z M9.92105263,21.2272727 C9.92105263,20.8256111 9.61472114,20.5 9.23684211,20.5 C8.85896307,20.5 8.55263158,20.8256111 8.55263158,21.2272727 L8.55263158,25.5909091 C8.55263158,25.9925707 8.85896307,26.3181818 9.23684211,26.3181818 C9.61472114,26.3181818 9.92105263,25.9925707 9.92105263,25.5909091 L9.92105263,21.2272727 Z M7.18421053,21.2272727 C7.18421053,20.8256111 6.87787904,20.5 6.5,20.5 C6.12212096,20.5 5.81578947,20.8256111 5.81578947,21.2272727 L5.81578947,27.7727273 C5.81578947,28.1743889 6.12212096,28.5 6.5,28.5 C6.87787904,28.5 7.18421053,28.1743889 7.18421053,27.7727273 L7.18421053,21.2272727 Z M4.44736842,21.2272727 C4.44736842,20.8256111 4.14103693,20.5 3.76315789,20.5 C3.38527886,20.5 3.07894737,20.8256111 3.07894737,21.2272727 L3.07894737,23.7727273 C3.07894737,24.1743889 3.38527886,24.5 3.76315789,24.5 C4.14103693,24.5 4.44736842,24.1743889 4.44736842,23.7727273 L4.44736842,21.2272727 Z" id="Shape" fill="#B8C2C3" opacity="0.843075707"></path>
                    <path d="M9.5029289,4.9 C9.00510707,4.9 8.6,4.49526964 8.6,4.00001701 L8.6,2.8 C8.6,2.63431458 8.46568541,2.5 8.3,2.5 C8.13431459,2.5 8,2.63431458 8,2.8 L8,4.00001701 C8,4.82676553 8.67386111,5.5 9.5029289,5.5 L10.7,5.5 C10.8656854,5.5 11,5.36568541 11,5.2 C11,5.03431459 10.8656854,4.9 10.7,4.9 L9.5029289,4.9 Z" id="Path" fill="#A7BDC1"></path>
                </g>
            </g>
        </g>
    </g>
</svg>