<?xml version="1.0" encoding="UTF-8"?>
<svg width="11px" height="15px" viewBox="0 0 11 15" version="1.1" xmlns="http://www.w3.org/2000/svg" xmlns:xlink="http://www.w3.org/1999/xlink">
    <!-- Generator: Sketch 52.2 (67145) - http://www.bohemiancoding.com/sketch -->
    <title></title>
    <desc>Created with Sketch.</desc>
    <g id="KPI-dashboard" stroke="none" stroke-width="1" fill="none" fill-rule="evenodd">
        <g id="2E" transform="translate(-154.000000, -62.000000)" fill="#4A4A4A">
            <path d="M164.284848,65.5629422 L161.611116,68.2366746 L161.611116,75.7821773 C161.611116,76.0555664 161.512697,76.2961453 161.315857,76.503921 C161.119017,76.7116968 160.878438,76.8101154 160.594113,76.7991798 C160.309788,76.7882443 160.063742,76.6898256 159.855966,76.503921 C159.64819,76.3180164 159.549772,76.0774376 159.560707,75.7821773 L159.560707,72.255475 L158.97019,72.255475 L158.97019,75.7821773 C158.97019,76.0555664 158.871771,76.2961453 158.674931,76.503921 C158.478091,76.7116968 158.237512,76.8101154 157.953187,76.7991798 C157.668863,76.7882443 157.428284,76.6898256 157.231444,76.503921 C157.034603,76.3180164 156.930717,76.0774376 156.919781,75.7821773 L156.919781,68.2366746 L154.246049,65.5629422 C154.082016,65.3879731 154,65.1802005 154,64.939618 C154,64.6990356 154.082016,64.491263 154.246049,64.3162939 C154.410082,64.1413248 154.617855,64.0538416 154.869373,64.0538416 C155.120891,64.0538416 155.328664,64.1413248 155.492697,64.3162939 L157.592315,66.3995088 L160.954985,66.3995088 L163.0382,64.3162939 C163.213169,64.1413248 163.420942,64.0538416 163.661524,64.0538416 C163.902107,64.0538416 164.109879,64.1413248 164.284848,64.3162939 C164.459817,64.491263 164.5473,64.6990356 164.5473,64.939618 C164.5473,65.1802005 164.459817,65.3879731 164.284848,65.5629422 Z M161.315857,64.0538416 C161.315857,64.6224911 161.11902,65.1091164 160.725339,65.5137324 C160.331659,65.9183483 159.845034,66.1151855 159.265449,66.10425 C158.685864,66.0933144 158.204706,65.8964772 157.821961,65.5137324 C157.439216,65.1309876 157.236911,64.6443622 157.21504,64.0538416 C157.193169,63.4633211 157.395474,62.9821634 157.821961,62.6103542 C158.248448,62.2385449 158.729606,62.03624 159.265449,62.0034333 C159.801291,61.9706266 160.287917,62.1729315 160.725339,62.6103542 C161.162762,63.0477768 161.359599,63.5289345 161.315857,64.0538416 Z" id=""></path>
        </g>
    </g>
</svg>