<?xml version="1.0" encoding="UTF-8"?>
<svg width="9px" height="16px" viewBox="0 0 9 16" version="1.1" xmlns="http://www.w3.org/2000/svg" xmlns:xlink="http://www.w3.org/1999/xlink">
    <!-- Generator: Sketch 52.2 (67145) - http://www.bohemiancoding.com/sketch -->
    <title>male - fontello</title>
    <desc>Created with Sketch.</desc>
    <g id="KPI-dashboard" stroke="none" stroke-width="1" fill="none" fill-rule="evenodd">
        <g id="2E" transform="translate(-258.000000, -62.000000)" fill="#4A4A4A">
            <path d="M266.565,67.6282143 L266.565,71.1082143 C266.565,71.3282154 266.490001,71.5182135 266.34,71.6782143 C266.189999,71.8382151 266.000001,71.9182143 265.77,71.9182143 C265.539999,71.9182143 265.350001,71.8382151 265.2,71.6782143 C265.049999,71.5182135 264.97,71.3282154 264.96,71.1082143 L264.96,68.1682143 L264.435,68.1682143 L264.435,76.8873986 C264.435,77.1373998 264.340001,77.3573976 264.15,77.5473986 C263.959999,77.7373995 263.740001,77.8273986 263.49,77.8173986 C263.239999,77.8073985 263.020001,77.7173994 262.83,77.5473986 C262.639999,77.3773977 262.55,77.1573999 262.56,76.8873986 L262.56,71.9182143 L262.02,71.9182143 L262.02,76.8873986 C262.02,77.1373998 261.925001,77.3573976 261.735,77.5473986 C261.544999,77.7373995 261.325001,77.8273986 261.075,77.8173986 C260.824999,77.8073985 260.605001,77.7173994 260.415,77.5473986 C260.224999,77.3773977 260.135,77.1573999 260.145,76.8873986 L260.145,68.1682143 L259.605,68.1682143 L259.605,71.1082143 C259.605,71.3282154 259.530001,71.5182135 259.38,71.6782143 C259.229999,71.8382151 259.040001,71.9182143 258.81,71.9182143 C258.579999,71.9182143 258.390001,71.8382151 258.24,71.6782143 C258.089999,71.5182135 258.01,71.3282154 258,71.1082143 L258,67.6282143 C258,67.1782121 258.154998,66.7982159 258.465,66.4882143 C258.775002,66.1782128 259.154998,66.0232143 259.605,66.0232143 L264.96,66.0232143 C265.410002,66.0232143 265.789998,66.1782128 266.1,66.4882143 C266.410002,66.7982159 266.565,67.1782121 266.565,67.6282143 Z M264.165,63.8782143 C264.165,64.3982169 263.980002,64.8382125 263.61,65.1982143 C263.239998,65.5582161 262.800003,65.7432143 262.29,65.7532143 C261.779997,65.7632144 261.335002,65.5782162 260.955,65.1982143 C260.574998,64.8182124 260.395,64.3782168 260.415,63.8782143 C260.435,63.3782118 260.614998,62.9332163 260.955,62.5432143 C261.295002,62.1532124 261.739997,61.9732142 262.29,62.0032143 C262.840003,62.0332145 263.279998,62.2132127 263.61,62.5432143 C263.940002,62.873216 264.125,63.3182115 264.165,63.8782143 Z" id="male---fontello"></path>
        </g>
    </g>
</svg>